<?xml version="1.0" standalone="no"?>
<!DOCTYPE svg PUBLIC "-//W3C//DTD SVG 20010904//EN"
 "http://www.w3.org/TR/2001/REC-SVG-20010904/DTD/svg10.dtd">
<svg version="1.0" xmlns="http://www.w3.org/2000/svg"
 width="247.000000pt" height="204.000000pt" viewBox="0 0 247.000000 204.000000"
 preserveAspectRatio="xMidYMid meet">
<metadata>
Created by potrace 1.16, written by Peter Selinger 2001-2019
</metadata>
<g transform="translate(0.000000,204.000000) scale(0.100000,-0.100000)"
fill="#0e8684" stroke="none">
<path d="M1783 1987 c-25 -35 -41 -114 -47 -237 -4 -88 -34 -165 -68 -173 -24
-7 -54 6 -81 34 -10 11 -28 19 -41 19 -13 0 -27 7 -30 15 -3 9 -22 23 -42 31
-21 9 -54 29 -75 46 l-38 31 20 25 c12 15 17 33 13 44 -4 14 0 21 13 24 10 3
26 18 35 34 15 27 15 28 -3 33 -12 3 -19 0 -19 -9 0 -18 -8 -18 -26 1 -8 8
-21 12 -28 9 -8 -3 -34 0 -57 7 -24 7 -52 13 -62 14 -11 1 -23 8 -28 16 -5 8
-9 10 -9 5 0 -5 -6 -4 -12 1 -14 11 -52 14 -42 4 3 -3 10 -7 15 -7 5 -1 14 -2
19 -3 6 0 10 -10 10 -21 0 -14 -9 -21 -34 -26 -19 -3 -40 -3 -45 1 -16 9 -71
-33 -71 -56 0 -10 -4 -19 -9 -19 -15 0 -45 -54 -33 -58 7 -2 12 -13 12 -23 0
-14 -4 -18 -12 -12 -26 16 -62 14 -75 -3 -12 -17 -13 -17 -13 2 0 10 -8 29
-18 40 -19 25 -62 41 -62 25 0 -6 -7 -11 -16 -11 -9 0 -23 -8 -30 -17 -9 -12
-13 -13 -14 -5 0 10 -5 10 -21 2 -16 -9 -18 -14 -8 -26 9 -11 8 -14 -5 -14
-10 0 -15 -4 -12 -9 3 -5 -2 -8 -12 -7 -13 1 -17 -6 -16 -30 1 -30 0 -31 -27
-24 -25 8 -27 6 -24 -19 6 -46 -11 -59 -29 -23 l-16 31 -26 -24 c-21 -20 -25
-30 -19 -54 4 -19 3 -31 -4 -31 -6 0 -21 -18 -33 -39 -19 -33 -32 -43 -75 -56
-29 -9 -57 -14 -63 -10 -6 4 -19 1 -28 -7 -21 -17 -77 -35 -116 -37 -16 0 -41
-9 -54 -19 -14 -9 -37 -24 -52 -32 -16 -8 -37 -26 -49 -40 l-20 -25 -1 24 c0
35 -11 19 -15 -23 -2 -20 -9 -52 -15 -71 -10 -31 -9 -40 14 -81 31 -55 32 -63
8 -80 -14 -11 -15 -16 -4 -33 6 -12 12 -28 12 -36 0 -8 12 -34 26 -56 14 -22
28 -59 30 -81 3 -23 14 -58 25 -79 11 -23 19 -58 19 -90 0 -42 -3 -52 -20 -56
-11 -3 -20 -13 -20 -22 0 -22 90 -71 130 -71 33 0 110 32 143 59 14 12 44 15
133 14 111 -2 115 -1 130 22 21 32 116 75 166 75 21 0 64 9 96 19 65 22 187
30 217 14 11 -6 39 -13 63 -17 53 -8 93 -32 85 -52 -3 -8 1 -14 9 -14 18 0 55
-49 64 -84 3 -14 13 -26 22 -26 8 0 12 3 9 7 -8 8 42 63 57 63 5 0 22 15 38
33 27 31 28 31 25 7 -2 -14 -8 -35 -15 -47 -7 -12 -12 -31 -12 -42 0 -12 -7
-21 -15 -21 -8 0 -15 -5 -15 -11 0 -6 7 -8 16 -5 9 3 19 6 24 6 4 0 11 15 14
33 7 31 7 31 22 12 8 -11 14 -32 11 -47 -3 -22 1 -28 14 -28 10 0 21 5 24 10
9 14 25 2 19 -14 -3 -7 2 -19 11 -26 8 -7 15 -25 15 -41 0 -50 47 -84 133 -95
15 -2 43 -10 61 -18 35 -15 53 -9 94 31 20 20 35 15 29 -8 -4 -17 -3 -19 6
-10 15 15 27 14 27 -2 0 -8 12 -19 26 -25 14 -7 23 -8 19 -2 -3 5 1 10 10 10
9 0 31 11 48 24 19 14 53 27 82 31 76 10 85 14 83 38 -2 33 20 103 37 117 8 7
15 19 15 26 0 22 53 115 72 125 22 12 52 79 73 164 20 81 21 116 4 147 -7 13
-11 40 -10 61 1 21 -3 45 -11 54 -7 9 -8 14 -2 10 7 -4 15 0 18 9 9 24 7 31
-4 14 -9 -12 -17 -8 -48 25 -20 22 -49 48 -64 58 -17 10 -28 26 -28 40 0 20
-20 63 -20 43 0 -5 -7 -3 -15 4 -12 10 -15 10 -15 0 0 -24 -26 9 -40 49 -7 22
-19 42 -27 45 -8 3 -13 14 -11 23 2 10 -1 18 -7 18 -17 2 -65 28 -65 36 0 4
-10 9 -22 12 -43 11 -58 31 -68 90 -5 31 -15 64 -23 72 -8 8 -18 35 -21 60 -7
45 -49 104 -61 84 -16 -24 -34 -6 -45 45 -6 30 -20 73 -31 95 -10 22 -19 47
-19 55 0 20 -16 28 -27 13z"/>
<path d="M1930 162 c0 -9 12 -35 26 -56 15 -21 22 -36 15 -32 -22 14 -11 -11
17 -36 30 -28 69 -41 78 -27 3 5 10 7 15 4 5 -3 6 0 3 8 -3 8 5 18 19 24 24
11 37 47 37 99 0 27 -5 28 -65 13 -36 -9 -53 -8 -91 5 -58 20 -54 20 -54 -2z"/>
</g>
</svg>
