<?xml version="1.0" standalone="no"?>
<!DOCTYPE svg PUBLIC "-//W3C//DTD SVG 20010904//EN"
 "http://www.w3.org/TR/2001/REC-SVG-20010904/DTD/svg10.dtd">
<svg version="1.0" xmlns="http://www.w3.org/2000/svg"
 width="255.000000pt" height="197.000000pt" viewBox="0 0 255.000000 197.000000"
 preserveAspectRatio="xMidYMid meet">
<metadata>
Created by potrace 1.16, written by Peter Selinger 2001-2019
</metadata>
<g transform="translate(0.000000,197.000000) scale(0.100000,-0.100000)"
fill="#0e8684" stroke="none">
<path d="M1162 1950 c-45 -20 -66 -50 -41 -59 8 -2 1 -9 -18 -15 -18 -6 -32
-15 -30 -21 1 -5 6 -9 11 -7 5 2 5 -3 -1 -10 -8 -9 -7 -17 4 -27 12 -11 14
-10 11 4 -2 11 4 19 15 21 15 2 16 0 6 -12 -6 -8 -9 -17 -5 -21 3 -3 6 -1 6 5
0 7 7 12 15 12 9 0 15 9 15 23 0 17 2 19 10 7 6 -10 5 -22 -5 -36 -12 -18 -11
-23 3 -39 16 -17 16 -17 -11 0 -15 10 -30 16 -32 13 -9 -8 36 -59 46 -53 5 4
9 -1 9 -9 0 -10 -6 -13 -16 -9 -9 3 -20 0 -25 -8 -14 -22 -10 -33 6 -19 8 7
16 10 16 6 1 -3 3 -10 4 -16 1 -5 3 -13 4 -17 1 -5 6 -1 11 7 8 13 10 13 10
-2 0 -20 -22 -36 -28 -20 -2 7 -11 12 -19 12 -12 0 -13 -3 -4 -14 8 -10 9 -16
1 -21 -5 -3 -10 -13 -10 -21 0 -12 4 -12 20 -4 15 8 20 8 20 -2 0 -9 3 -10 8
-2 12 18 52 27 52 12 0 -8 5 -5 11 6 12 19 -1 36 -28 36 -7 0 -13 4 -13 10 0
5 6 7 13 5 7 -3 16 9 23 29 11 36 4 63 -14 52 -5 -3 -13 1 -16 9 -3 9 1 18 9
21 8 4 12 10 9 15 -3 5 2 9 10 9 9 0 16 5 16 10 0 6 -5 10 -12 10 -9 0 -9 3 0
12 7 7 12 26 12 43 0 20 -3 26 -9 16 -5 -7 -11 -9 -14 -4 -4 6 0 19 8 29 19
25 18 31 -3 43 -13 7 -30 4 -60 -9z"/>
<path d="M1225 1489 c-14 -22 -12 -64 4 -77 9 -7 10 -11 4 -7 -7 3 -13 1 -13
-4 0 -6 5 -11 10 -11 14 0 13 -27 -2 -36 -7 -5 -8 -3 -4 5 5 7 0 18 -10 26
-14 10 -19 26 -19 59 0 25 -3 46 -7 46 -15 0 -38 -46 -38 -76 0 -48 9 -64 39
-65 26 -1 26 -1 2 -8 -20 -5 -22 -8 -9 -19 9 -7 23 -10 32 -6 9 3 16 2 16 -3
0 -5 16 -7 36 -5 25 3 32 7 23 13 -9 6 -1 9 25 9 30 0 37 3 32 15 -3 9 0 15 9
15 8 0 15 -4 15 -10 0 -5 12 -13 26 -16 17 -4 23 -11 19 -22 -4 -11 -2 -12 8
-4 10 9 22 7 47 -6 43 -21 63 -58 48 -85 -8 -16 -7 -22 7 -29 15 -9 15 -11 -1
-29 -9 -10 -25 -19 -34 -19 -22 0 -32 -36 -14 -51 10 -8 19 -6 38 9 14 11 22
23 18 27 -4 4 4 5 18 2 14 -4 35 -7 48 -7 12 0 22 -6 22 -14 0 -16 67 -27 117
-19 35 6 35 6 12 19 -13 7 -31 13 -40 14 -8 0 -24 7 -35 15 -18 15 -15 16 34
12 51 -4 74 4 52 18 -6 4 -8 11 -4 16 3 6 -3 13 -15 16 -12 3 -21 9 -21 14 0
5 -8 9 -19 9 -30 0 -86 26 -70 33 9 3 10 6 2 6 -7 1 -10 7 -7 15 3 8 13 12 25
9 12 -3 19 0 20 8 0 8 4 4 9 -8 6 -14 18 -23 31 -23 17 0 19 3 10 14 -9 11 -9
15 1 18 10 4 10 8 2 19 -6 8 -10 22 -9 32 2 9 -1 17 -6 17 -5 0 -9 -4 -9 -9 0
-5 -11 -8 -25 -7 -15 0 -23 6 -21 13 4 9 -6 9 -37 -1 -36 -11 -45 -10 -56 1
-7 8 -10 21 -7 29 3 9 -1 14 -14 14 -13 0 -18 5 -14 15 4 8 1 15 -5 15 -6 0
-11 -4 -11 -10 0 -5 -5 -10 -11 -10 -6 0 -9 6 -6 14 4 9 -2 13 -18 12 -19 -1
-21 -4 -13 -19 8 -16 7 -17 -12 -5 -11 7 -18 18 -16 25 8 20 -5 23 -30 6 -22
-14 -24 -14 -25 3 0 11 -3 14 -6 6 -2 -6 -9 -10 -13 -7 -5 3 -7 12 -4 20 4 9
0 12 -13 10 -10 -2 -22 -4 -28 -4 -7 -1 -7 -4 0 -9 18 -13 17 -35 -1 -28 -10
4 -21 1 -26 -6 -5 -9 -8 -7 -8 7 0 23 -26 65 -40 65 -5 0 -12 -5 -15 -11z"/>
<path d="M297 1443 c-175 -190 -267 -296 -267 -309 0 -8 7 -22 15 -30 8 -9 15
-33 15 -56 0 -38 1 -39 29 -33 28 6 28 5 34 -47 4 -29 4 -70 1 -90 -5 -26 -2
-45 9 -61 14 -22 14 -27 -4 -56 -10 -17 -23 -31 -29 -31 -5 0 -10 -11 -10 -24
0 -13 -6 -27 -12 -30 -7 -3 0 -3 16 1 24 5 27 3 23 -13 -3 -11 -8 -44 -11 -75
-6 -52 -4 -57 25 -87 17 -17 28 -36 24 -42 -3 -5 -1 -10 4 -10 6 0 11 -7 11
-15 0 -8 5 -15 10 -15 6 0 10 -6 10 -13 0 -18 173 -71 332 -102 162 -31 310
-45 480 -45 l138 0 11 27 c9 24 11 25 26 10 14 -14 14 -18 2 -33 -13 -16 -11
-17 15 -12 16 3 43 0 60 -7 45 -18 104 -8 123 21 18 28 73 33 93 9 7 -8 23
-15 36 -15 13 0 24 -4 24 -10 0 -5 12 -21 26 -35 19 -20 33 -25 53 -21 56 12
97 9 124 -8 15 -10 27 -25 27 -32 0 -16 -31 -19 -45 -5 -6 6 -10 -14 -11 -54
0 -36 -6 -70 -13 -79 -22 -26 4 -18 29 9 13 14 32 25 42 25 10 0 18 4 18 10 0
5 11 12 25 16 14 3 22 10 20 15 -3 4 -12 6 -20 2 -8 -3 -15 0 -15 5 0 16 50
52 72 52 11 0 17 4 14 9 -3 5 1 11 9 15 8 3 20 16 26 30 8 17 30 31 70 46 85
32 93 44 79 118 -12 57 -11 63 9 88 11 15 21 23 21 19 0 -4 6 -2 14 4 17 14
43 5 51 -19 7 -23 48 -50 62 -42 6 4 20 23 32 42 11 19 21 29 21 21 0 -11 3
-11 17 0 9 8 5 -2 -10 -22 -29 -39 -36 -84 -13 -92 15 -6 26 12 26 42 0 10 12
28 26 42 25 24 60 79 49 79 -3 0 2 11 11 25 15 23 13 30 -8 26 -5 0 -8 3 -8 9
0 5 -5 10 -11 10 -7 0 -9 -12 -5 -33 5 -29 3 -35 -19 -45 -14 -7 -38 -12 -53
-12 -28 1 -79 24 -74 34 5 13 1 14 -28 6 -19 -5 -28 -5 -25 1 4 5 12 9 20 9
17 0 30 39 17 52 -5 5 -19 7 -31 3 -22 -7 -73 -74 -85 -112 -4 -11 -13 -27
-21 -33 -8 -7 -16 -31 -17 -54 -1 -40 -1 -40 -5 -6 -3 19 2 49 10 65 18 39 37
92 46 130 5 21 23 40 61 67 102 69 110 77 110 114 0 21 8 42 20 54 26 26 25
44 -5 75 -29 28 -41 31 -48 13 -4 -10 -8 -10 -15 1 -14 20 -30 5 -38 -34 -3
-19 -10 -35 -15 -35 -12 0 -12 1 7 45 8 20 13 39 11 42 -3 2 -21 -3 -40 -11
-31 -12 -37 -13 -48 0 -6 7 -16 11 -21 8 -5 -3 -19 3 -31 14 -12 11 -33 23
-47 27 -14 4 -30 12 -36 17 -7 4 -32 19 -57 31 l-44 23 7 -28 c5 -15 11 -32
15 -38 4 -6 1 -25 -6 -41 -10 -25 -16 -29 -36 -24 -14 3 -31 1 -39 -6 -11 -9
-14 -8 -14 3 0 8 -9 25 -19 37 -11 13 -22 28 -24 34 -2 6 -18 10 -35 9 -18 -1
-32 2 -32 7 0 14 -63 26 -68 12 -2 -6 -21 -14 -43 -17 -40 -7 -53 -29 -24 -40
8 -4 15 -16 15 -29 0 -12 7 -28 16 -36 10 -8 14 -26 12 -52 -2 -30 2 -41 17
-49 31 -16 95 -87 84 -93 -5 -4 -9 -15 -9 -25 0 -10 -11 -32 -25 -49 l-26 -30
34 -48 c47 -66 52 -91 21 -99 -15 -4 -32 -1 -42 8 -9 8 -30 20 -45 28 -17 8
-36 32 -50 62 -21 48 -23 49 -62 47 -46 -3 -88 6 -126 26 -37 20 -105 30 -113
16 -4 -6 -12 -11 -17 -11 -6 0 -8 4 -4 9 10 17 -27 80 -49 83 -18 3 -21 9 -18
48 3 55 29 119 55 141 21 18 14 44 -9 35 -8 -3 -14 -1 -14 4 0 6 11 10 25 10
15 0 25 6 25 15 0 8 6 12 13 9 8 -3 18 6 25 21 17 37 15 45 -12 45 -13 0 -30
8 -37 17 -12 15 -12 16 6 9 45 -18 52 -18 58 5 4 14 1 27 -6 31 -13 8 -7 10
31 12 14 1 30 12 40 28 15 26 15 28 -7 52 -14 14 -18 26 -12 30 5 4 8 13 5 21
-4 8 -10 12 -15 9 -5 -3 -12 1 -15 9 -3 9 -13 13 -25 10 -20 -6 -25 -18 -10
-27 10 -7 2 -97 -9 -110 -8 -8 -42 35 -39 50 3 19 -2 34 -11 34 -5 0 -10 -9
-10 -20 0 -30 -14 -24 -27 11 -7 17 -17 28 -22 24 -7 -4 -11 4 -11 18 0 25
-25 83 -40 92 -14 9 -29 -29 -25 -61 2 -16 4 -32 4 -35 1 -4 9 -9 19 -12 28
-7 33 -43 11 -71 -20 -26 -25 -46 -10 -46 14 0 -15 -74 -30 -78 -11 -3 -11 -2
0 6 8 6 12 19 8 31 -3 12 -1 21 5 21 5 0 6 6 1 13 -4 6 -8 14 -8 17 -1 16 -25
44 -31 37 -4 -4 -2 -13 4 -19 20 -20 14 -24 -30 -20 -48 4 -108 28 -108 43 0
5 -10 3 -23 -5 -18 -13 -22 -23 -20 -58 1 -34 0 -39 -9 -25 -5 11 -11 24 -13
30 -7 34 -19 47 -45 47 -36 0 -80 16 -80 30 0 5 7 10 15 10 27 0 16 19 -25 45
-22 14 -47 37 -56 51 -13 20 -23 24 -41 19 -21 -5 -24 -3 -18 15 4 11 2 20 -4
20 -6 0 -11 -4 -11 -10 0 -5 -4 -10 -10 -10 -5 0 -10 14 -10 32 0 25 -3 29
-12 20 -16 -16 -38 -15 -38 1 0 9 -12 11 -40 9 -22 -2 -40 -8 -40 -12 0 -5 17
-6 38 -3 44 7 41 -1 -4 -10 -42 -8 -94 33 -94 74 0 45 -15 42 -63 -8z"/>
<path d="M763 1452 c-24 -4 -57 -47 -48 -62 3 -6 14 -10 23 -11 10 0 6 -5 -10
-11 -45 -16 -35 -35 22 -42 33 -4 58 -21 47 -32 -4 -4 -18 -2 -32 4 -27 13
-65 16 -65 6 0 -18 24 -44 40 -44 14 0 20 -7 20 -22 0 -19 6 -23 38 -26 21 -1
46 4 56 11 16 12 24 11 54 -4 35 -18 52 -17 52 2 0 6 -4 7 -10 4 -5 -3 -10 1
-10 9 0 14 12 20 33 17 17 -3 5 19 -21 37 -23 17 -28 28 -30 73 -2 47 -12 68
-34 69 -5 0 -8 -19 -8 -42 0 -30 -3 -39 -9 -28 -6 8 -8 17 -5 21 2 4 -3 20
-12 35 -13 24 -15 25 -11 7 6 -25 -10 -32 -19 -9 -3 8 -14 12 -27 9 -18 -4
-19 -3 -7 6 19 13 2 28 -27 23z"/>
<path d="M2310 833 c0 -25 29 -163 36 -172 2 -2 21 11 42 28 22 17 47 31 56
31 9 0 16 6 17 13 1 6 5 1 9 -13 9 -28 10 -22 14 56 2 34 -1 40 -15 37 -11 -3
-19 2 -21 12 -3 15 -6 15 -27 -4 -27 -24 -41 -27 -41 -8 -1 6 -9 2 -20 -11
l-20 -24 -6 41 c-7 46 -24 55 -24 14z"/>
</g>
</svg>
