<?xml version="1.0" standalone="no"?>
<!DOCTYPE svg PUBLIC "-//W3C//DTD SVG 20010904//EN"
 "http://www.w3.org/TR/2001/REC-SVG-20010904/DTD/svg10.dtd">
<svg version="1.0" xmlns="http://www.w3.org/2000/svg"
 width="173.000000pt" height="291.000000pt" viewBox="0 0 173.000000 291.000000"
 preserveAspectRatio="xMidYMid meet">
<metadata>
Created by potrace 1.16, written by Peter Selinger 2001-2019
</metadata>
<g transform="translate(0.000000,291.000000) scale(0.100000,-0.100000)"
fill="#0e8684" stroke="none">
<path d="M1005 2290 c3 -4 -21 -11 -52 -15 -31 -4 -67 -11 -79 -15 -15 -6 -24
-5 -27 3 -3 8 -10 5 -22 -8 -9 -11 -13 -14 -9 -6 7 13 -11 31 -33 31 -13 0
-35 -68 -27 -82 3 -5 -3 -12 -15 -15 -17 -4 -19 -9 -10 -24 8 -15 6 -19 -8
-19 -15 -1 -14 -4 6 -21 28 -23 23 -32 -22 -35 -17 -1 -35 -2 -39 -3 -4 0 -6
-16 -4 -33 3 -18 5 -36 5 -40 1 -3 7 -8 14 -11 6 -2 2 -2 -10 0 -14 2 -23 -2
-23 -9 0 -22 17 -41 29 -34 6 4 11 2 11 -3 0 -6 -6 -11 -12 -11 -9 0 -8 -4 2
-10 12 -8 9 -10 -12 -10 -20 0 -29 7 -37 28 -10 23 -11 23 -7 3 3 -14 1 -20
-4 -15 -5 5 -10 27 -12 48 -3 41 -28 64 -28 27 0 -23 -10 -27 -27 -10 -9 9
-10 6 -6 -10 3 -12 2 -21 -3 -20 -21 3 -26 -2 -14 -15 6 -8 17 -13 24 -10 8 3
16 -5 20 -20 6 -24 26 -33 59 -27 5 1 6 -9 2 -21 l-6 -23 20 23 c16 18 24 21
38 13 17 -10 17 -10 -1 -11 -12 0 -16 -5 -12 -16 3 -8 2 -13 -3 -10 -5 3 -12
-1 -15 -10 -8 -22 -8 -26 4 -19 15 9 12 -4 -4 -21 -8 -8 -21 -14 -30 -14 -8 0
-18 -4 -21 -10 -3 -5 3 -10 15 -10 12 0 18 -4 15 -10 -3 -5 5 -15 20 -22 23
-10 29 -8 62 23 l36 34 -24 -40 c-13 -22 -23 -41 -21 -43 1 -1 -4 -15 -12 -31
-11 -20 -12 -31 -4 -39 8 -8 8 -15 -1 -26 -6 -8 -10 -31 -7 -52 2 -21 -2 -61
-9 -89 -7 -27 -12 -52 -10 -54 8 -8 36 9 34 21 -4 20 12 88 22 93 4 3 3 17 -3
30 -9 21 -7 29 21 60 17 20 31 32 31 27 0 -5 -9 -17 -20 -27 -20 -18 -29 -72
-11 -60 6 3 14 -2 19 -11 8 -14 11 -11 20 15 11 30 35 41 47 21 3 -5 -3 -10
-15 -10 -19 0 -21 -4 -17 -35 3 -19 12 -41 21 -50 9 -9 16 -18 16 -19 0 -2
-14 -29 -31 -61 -19 -35 -29 -66 -25 -79 5 -20 5 -21 -9 -2 -15 19 -15 19 -15
-1 0 -11 7 -26 15 -33 10 -9 15 -9 15 -1 0 18 28 13 51 -10 16 -16 23 -18 29
-9 5 7 6 19 3 27 -4 9 0 11 11 7 9 -3 16 -9 16 -13 0 -13 39 -10 51 5 6 8 18
14 26 14 8 0 11 5 8 10 -4 6 11 10 37 9 41 -1 42 -1 16 -11 -16 -5 -28 -15
-28 -22 0 -7 -7 -27 -15 -44 -15 -28 -14 -33 6 -71 12 -23 26 -38 32 -34 6 4
8 0 4 -10 -6 -17 4 -23 17 -10 3 4 13 8 21 9 18 3 16 -54 -2 -61 -16 -5 -17
-45 -2 -45 6 0 4 -9 -4 -21 -8 -11 -13 -29 -10 -40 3 -10 0 -19 -6 -19 -5 0
-8 -7 -5 -15 7 -17 -11 -21 -21 -5 -4 7 -13 7 -24 1 -10 -6 -26 -10 -37 -9
-10 0 -28 -3 -38 -7 -14 -6 -17 -5 -12 3 4 7 1 12 -8 12 -9 0 -16 5 -16 10 0
6 -9 10 -20 10 -11 0 -20 -7 -20 -16 0 -9 -5 -13 -12 -9 -7 4 -1 -5 15 -19 15
-14 27 -29 27 -33 0 -4 -14 -20 -32 -35 -31 -26 -31 -27 -10 -28 12 0 22 4 22
9 0 5 9 11 21 14 25 7 32 -8 33 -80 1 -50 -2 -57 -29 -79 -17 -13 -37 -24 -46
-24 -9 0 -22 -7 -29 -15 -7 -9 -18 -14 -24 -12 -6 2 -20 -4 -30 -14 -18 -18
-18 -19 -2 -19 12 0 16 -5 13 -14 -3 -8 0 -22 7 -31 11 -16 15 -16 49 3 31 16
42 18 61 9 22 -10 22 -13 7 -25 -14 -12 -12 -13 18 -8 26 5 40 1 63 -19 35
-30 45 -31 72 -6 12 10 35 22 51 25 l30 8 -27 -29 c-16 -16 -28 -36 -28 -45 0
-20 -42 -28 -84 -17 -34 9 -92 -2 -89 -17 2 -16 -18 -33 -33 -27 -10 4 -14 -3
-14 -25 0 -22 -9 -38 -33 -59 -18 -15 -43 -42 -55 -60 -13 -17 -32 -33 -45
-35 -12 -2 -23 -12 -26 -23 -3 -16 -1 -17 12 -7 15 13 47 7 47 -9 0 -5 5 -9
10 -9 6 0 10 8 10 18 0 11 11 24 25 30 14 6 25 16 25 22 0 15 81 12 114 -5 26
-14 30 -14 42 2 7 10 14 25 14 33 1 26 16 41 56 55 31 11 44 11 64 0 34 -17
98 -26 105 -14 4 5 0 10 -7 10 -7 1 1 4 17 8 22 5 38 2 58 -12 23 -15 30 -17
43 -6 20 16 -1 30 -36 23 -22 -5 -23 -4 -7 6 10 6 14 16 10 23 -4 7 0 6 10 -2
9 -7 23 -11 31 -8 7 3 18 1 23 -4 6 -6 28 -6 58 0 30 6 58 5 74 -1 24 -9 36
-6 93 23 10 5 25 9 33 9 8 0 15 4 15 10 0 5 13 16 29 24 22 12 29 22 27 42 -1
23 -4 25 -33 21 -20 -4 -33 -1 -33 5 0 6 -11 8 -27 4 -19 -5 -24 -4 -14 3 11
7 9 10 -10 13 -20 4 -18 6 14 12 27 6 37 13 37 27 0 13 -5 17 -17 13 -10 -3
-7 1 6 9 14 8 31 13 38 10 7 -3 17 5 22 18 5 13 18 32 29 42 18 17 35 73 36
117 0 54 -43 89 -118 97 -49 5 -54 3 -61 -16 -8 -25 -27 -27 -45 -6 -11 13 -9
20 10 40 17 18 21 30 15 52 -9 36 -84 106 -107 100 -10 -3 -20 -2 -22 2 -7 10
45 12 58 3 6 -5 19 -12 29 -15 15 -6 13 1 -8 38 -17 29 -24 52 -20 65 3 11 2
20 -2 20 -5 0 -20 18 -32 41 -16 28 -36 46 -65 58 -41 18 -51 32 -75 101 -15
43 -20 65 -27 109 -2 19 -13 43 -24 53 -11 11 -27 30 -36 43 -9 14 -36 34 -60
47 -40 20 -45 20 -61 5 -15 -12 -27 -14 -67 -6 -27 5 -52 12 -55 15 -3 4 8 4
26 1 25 -5 39 -1 62 18 16 14 36 25 44 25 22 0 31 19 13 26 -9 3 -16 12 -16
20 0 17 -5 17 -33 3 -21 -10 -21 -10 -3 5 11 9 27 16 36 16 20 0 45 26 54 58
4 12 11 22 16 22 8 0 40 88 40 110 0 6 9 23 20 39 17 22 19 32 11 54 -6 15
-14 27 -18 27 -177 6 -211 4 -233 -7 -14 -7 -32 -13 -41 -13 -9 0 -19 -7 -23
-15 -3 -8 -16 -15 -28 -14 l-23 0 23 10 c18 7 22 14 17 29 -4 12 -2 20 5 20 6
0 8 -6 5 -12 -4 -7 2 -2 14 12 l20 25 -26 3 c-24 3 -21 8 51 79 62 59 78 82
81 108 2 28 -1 34 -21 38 -13 2 -21 1 -19 -3z"/>
<path d="M432 1423 c-8 -8 -12 -23 -9 -33 3 -11 -2 -27 -10 -37 -13 -17 -13
-16 -3 5 10 20 7 26 -12 23 -4 0 -5 6 -1 15 5 14 3 15 -18 3 -13 -7 -26 -12
-29 -12 -26 2 -59 -32 -55 -56 2 -18 -12 -34 -37 -44 -41 -15 -3 -42 46 -33
41 7 32 -16 -19 -48 -17 -11 -24 -21 -17 -24 24 -8 2 -19 -30 -16 -18 2 -35
-1 -40 -8 -6 -10 -11 -9 -19 5 -7 11 -22 17 -49 17 -33 0 -39 -4 -48 -30 -7
-18 -7 -32 -1 -35 5 -4 9 -11 9 -17 0 -6 -6 -5 -16 3 -14 12 -16 11 -12 -6 3
-16 10 -19 36 -17 23 2 32 -1 32 -12 0 -8 -10 -16 -22 -18 -15 -2 -22 -9 -22
-20 1 -10 -7 -20 -17 -23 -28 -9 -20 -45 11 -45 20 0 22 -2 10 -11 -12 -8 -9
-9 13 -5 27 6 38 -7 15 -18 -7 -3 13 -4 45 -2 45 4 57 1 57 -10 0 -12 -20 -19
-35 -11 -7 3 -36 -40 -33 -50 5 -19 -14 -50 -45 -72 -17 -13 -24 -21 -15 -18
25 9 32 -10 9 -25 -15 -9 -17 -16 -10 -30 11 -20 8 -21 -33 -18 -16 1 -36 -6
-45 -16 -16 -16 -15 -17 36 -12 l53 5 -34 -21 c-54 -34 -68 -52 -35 -47 4 0 7
-4 7 -10 0 -11 19 -9 67 7 10 3 3 -4 -14 -16 -45 -30 -41 -42 7 -25 22 8 40
12 40 9 0 -9 -27 -33 -32 -29 -3 3 -5 -1 -5 -9 0 -11 6 -12 23 -6 13 5 24 5
26 0 7 -21 158 45 158 69 0 11 3 12 8 4 8 -13 62 18 104 60 11 11 28 16 43 13
14 -3 25 -1 25 4 0 5 15 8 33 8 66 -1 71 1 57 17 -9 10 -9 19 -2 28 13 16 52
131 52 154 0 10 -6 30 -14 45 -8 15 -11 29 -8 33 11 10 12 44 2 50 -6 3 -10
19 -10 36 0 16 -4 29 -10 29 -5 0 -10 9 -10 20 0 13 5 18 15 13 18 -6 55 23
55 44 0 7 9 13 20 13 28 0 47 43 34 78 -8 21 -15 26 -34 23 -24 -3 -24 -2 -8
16 17 19 17 21 -7 43 -13 12 -22 27 -19 31 3 5 1 9 -4 9 -6 0 -9 8 -8 17 2 34
-121 28 -132 -6 -4 -13 -32 -15 -32 -2 0 5 9 15 21 22 20 14 20 14 -8 30 -25
15 -30 15 -41 2z"/>
</g>
</svg>
